<svg width="34" height="34" viewBox="0 0 34 34" fill="none" xmlns="http://www.w3.org/2000/svg">
<path d="M19.8333 14.1665C19.8333 15.6101 19.397 16.9488 18.6547 18.068L14.5817 13.9951C14.3154 13.7288 14.1667 13.3689 14.1667 12.9935V7.22625C17.3995 7.88217 19.8333 10.7396 19.8333 14.1665ZM11.3333 13.58V7.22625C7.72083 7.96009 5.10567 11.4423 5.77008 15.3962C6.2305 18.136 8.34842 20.4154 11.0528 21.0515C13.1353 21.5403 15.1045 21.0983 16.6515 20.0726L12.1621 15.5832C11.6308 15.0519 11.3333 14.3308 11.3333 13.58ZM26.9167 7.08317H24.0833C23.2999 7.08317 22.6667 7.71784 22.6667 8.49984C22.6667 9.28184 23.2999 9.9165 24.0833 9.9165H26.9167C27.7001 9.9165 28.3333 9.28184 28.3333 8.49984C28.3333 7.71784 27.7001 7.08317 26.9167 7.08317ZM26.9167 12.7498H24.0833C23.2999 12.7498 22.6667 13.3845 22.6667 14.1665C22.6667 14.9485 23.2999 15.5832 24.0833 15.5832H26.9167C27.7001 15.5832 28.3333 14.9485 28.3333 14.1665C28.3333 13.3845 27.7001 12.7498 26.9167 12.7498ZM26.9167 18.4165H24.0833C23.2999 18.4165 22.6667 19.0512 22.6667 19.8332C22.6667 20.6152 23.2999 21.2498 24.0833 21.2498H26.9167C27.7001 21.2498 28.3333 20.6152 28.3333 19.8332C28.3333 19.0512 27.7001 18.4165 26.9167 18.4165ZM34 8.49984V19.8332C34 23.7389 30.8224 26.9165 26.9167 26.9165H18.4167V29.7498H24.0833C24.8667 29.7498 25.5 30.3845 25.5 31.1665C25.5 31.9485 24.8667 32.5832 24.0833 32.5832H9.91667C9.13325 32.5832 8.5 31.9485 8.5 31.1665C8.5 30.3845 9.13325 29.7498 9.91667 29.7498H15.5833V26.9165H7.08333C3.17758 26.9165 0 23.7389 0 19.8332V8.49984C0 4.59409 3.17758 1.4165 7.08333 1.4165H26.9167C30.8224 1.4165 34 4.59409 34 8.49984ZM31.1667 8.49984C31.1667 6.15667 29.2598 4.24984 26.9167 4.24984H7.08333C4.74017 4.24984 2.83333 6.15667 2.83333 8.49984V19.8332C2.83333 22.1763 4.74017 24.0832 7.08333 24.0832H26.9167C29.2598 24.0832 31.1667 22.1763 31.1667 19.8332V8.49984Z" fill="#B10B2E"/>
</svg>
