<svg width="35" height="34" viewBox="0 0 35 34" fill="none" xmlns="http://www.w3.org/2000/svg">
<g clip-path="url(#clip0_36037_1474)">
<path d="M19.6245 17C19.6245 20.1252 22.166 22.6667 25.2912 22.6667C28.4164 22.6667 30.9579 20.1252 30.9579 17C30.9579 13.8748 28.4164 11.3333 25.2912 11.3333C22.166 11.3333 19.6245 13.8748 19.6245 17ZM25.2912 14.1667C26.8538 14.1667 28.1245 15.4374 28.1245 17C28.1245 18.5626 26.8538 19.8333 25.2912 19.8333C23.7286 19.8333 22.4579 18.5626 22.4579 17C22.4579 15.4374 23.7286 14.1667 25.2912 14.1667ZM17.4995 11.3333C20.6247 11.3333 23.1662 8.79183 23.1662 5.66667C23.1662 2.5415 20.6247 0 17.4995 0C14.3744 0 11.8329 2.5415 11.8329 5.66667C11.8329 8.79183 14.3744 11.3333 17.4995 11.3333ZM17.4995 2.83333C19.0621 2.83333 20.3329 4.10408 20.3329 5.66667C20.3329 7.22925 19.0621 8.5 17.4995 8.5C15.9369 8.5 14.6662 7.22925 14.6662 5.66667C14.6662 4.10408 15.9369 2.83333 17.4995 2.83333ZM9.70787 22.6667C12.833 22.6667 15.3745 20.1252 15.3745 17C15.3745 13.8748 12.833 11.3333 9.70787 11.3333C6.5827 11.3333 4.0412 13.8748 4.0412 17C4.0412 20.1252 6.5827 22.6667 9.70787 22.6667ZM9.70787 14.1667C11.2704 14.1667 12.5412 15.4374 12.5412 17C12.5412 18.5626 11.2704 19.8333 9.70787 19.8333C8.14528 19.8333 6.87453 18.5626 6.87453 17C6.87453 15.4374 8.14528 14.1667 9.70787 14.1667ZM34.4585 32.4558C34.5293 33.235 33.9541 33.9235 33.1749 33.9943C33.1325 33.9972 33.0885 34 33.046 34C32.3207 34 31.703 33.4461 31.6364 32.7108C31.4806 30.9839 30.5924 29.3746 29.1984 28.2937C29.1629 28.2653 29.0468 28.2781 28.9717 28.3631L26.3636 31.3848C26.0959 31.6965 25.6765 31.9359 25.2912 31.8764C24.8832 31.8764 24.495 31.7007 24.2259 31.3947L21.5838 28.3829C21.5115 28.2993 21.3954 28.2837 21.3571 28.3149C19.9603 29.4114 19.1032 30.9726 18.9474 32.7122C18.8864 33.3866 18.3623 33.8739 17.7106 33.9603C17.6695 33.9674 17.6341 33.9915 17.5916 33.9958C17.5477 33.9986 17.5052 34.0014 17.4627 34.0014C17.4485 34.0014 17.4372 33.9943 17.4244 33.9943C17.4188 33.9943 17.4145 33.9972 17.4089 33.9958C17.3933 33.9958 17.3805 33.9844 17.3649 33.983C16.6835 33.9348 16.1154 33.4135 16.0531 32.7122C15.8959 30.9598 15.0303 29.3916 13.6164 28.2951C13.5754 28.2653 13.4606 28.2795 13.3898 28.3645L10.7817 31.3862C10.5125 31.6993 10.1187 31.8807 9.70928 31.8778C9.30128 31.8778 8.91312 31.7022 8.64395 31.3947L6.00187 28.3829C5.9282 28.3007 5.81203 28.2852 5.7752 28.3163C4.37695 29.4128 3.51987 30.974 3.36403 32.7137C3.29462 33.4928 2.61603 34.0567 1.82553 33.9972C1.04637 33.9263 0.4712 33.2378 0.542033 32.4587C0.765866 29.9696 2.03662 27.6477 4.02703 26.0851C5.26803 25.1132 7.07003 25.3031 8.13112 26.5143L9.69937 28.3022L11.2435 26.5129C12.2989 25.2875 14.1038 25.0863 15.3519 26.0567C16.2132 26.724 16.9314 27.54 17.4995 28.4438C18.0605 27.5527 18.7646 26.7481 19.6089 26.0851C20.8471 25.1147 22.6519 25.3017 23.713 26.5157L25.2813 28.3022L26.8254 26.5129C27.8809 25.2875 29.6871 25.0892 30.9324 26.0553C32.9454 27.6165 34.229 29.9497 34.4556 32.4572L34.4585 32.4558Z" fill="#B10B2E"/>
</g>
<defs>
<clipPath id="clip0_36037_1474">
<rect width="34" height="34" fill="white" transform="translate(0.5)"/>
</clipPath>
</defs>
</svg>
