<svg width="34" height="34" viewBox="0 0 34 34" fill="none" xmlns="http://www.w3.org/2000/svg">
<g clip-path="url(#clip0_36037_2622)">
<path d="M31.0955 7.86415L26.1584 2.92707C24.2856 1.05282 21.7951 0.0214844 19.1459 0.0214844H12.7497C9.52959 0.0214844 6.71042 2.19607 5.89726 5.30848C5.69893 6.06498 6.15226 6.8399 6.90876 7.03823C7.67092 7.23232 8.44159 6.78182 8.63709 6.02532C9.12584 4.15957 10.8173 2.85482 12.7497 2.85482H19.1459C19.3797 2.85482 19.6035 2.90015 19.833 2.9214V9.93815C19.833 12.2813 21.7398 14.1882 24.083 14.1882H31.0969C31.1196 14.4177 31.1663 14.6443 31.1663 14.8752V26.9382C31.1663 29.2813 29.2595 31.1882 26.9163 31.1882H12.7497C11.7722 31.1882 10.8542 30.8652 10.0934 30.2574C9.48426 29.7715 8.59317 29.8664 8.10159 30.4756C7.61284 31.0876 7.71059 31.9786 8.32118 32.4674C9.57067 33.469 11.1432 34.0215 12.7483 34.0215H26.9149C30.8207 34.0215 33.9983 30.8439 33.9983 26.9382V14.8752C33.9983 12.2275 32.9669 9.73698 31.0941 7.86415H31.0955ZM24.083 11.3548C23.3024 11.3548 22.6663 10.7202 22.6663 9.93815V3.8224C23.199 4.12982 23.7076 4.48257 24.1538 4.92882L29.0909 9.8659C29.5315 10.3065 29.8828 10.8179 30.1903 11.3534H24.0816L24.083 11.3548ZM14.1663 22.6669H25.4997C26.2817 22.6669 26.9163 23.3002 26.9163 24.0836C26.9163 24.867 26.2817 25.5002 25.4997 25.5002H14.1663C13.3843 25.5002 12.7497 24.867 12.7497 24.0836C12.7497 23.3002 13.3843 22.6669 14.1663 22.6669ZM9.91634 26.7002V19.971C11.2013 18.9312 12.0413 17.3615 12.0413 15.5836C12.0413 12.4584 9.49984 9.9169 6.37467 9.9169C3.24951 9.9169 0.708008 12.4584 0.708008 15.5836C0.708008 17.3615 1.54809 18.9312 2.83301 19.971V26.7002C2.83301 27.5827 3.95359 27.961 4.48909 27.2597L6.37467 24.7905L8.26026 27.2597C8.79576 27.961 9.91634 27.5827 9.91634 26.7002ZM6.37467 12.7502C7.93726 12.7502 9.20801 14.021 9.20801 15.5836C9.20801 17.1462 7.93726 18.4169 6.37467 18.4169C4.81209 18.4169 3.54134 17.1462 3.54134 15.5836C3.54134 14.021 4.81209 12.7502 6.37467 12.7502ZM15.583 19.8336C14.801 19.8336 14.1663 19.2003 14.1663 18.4169C14.1663 17.6335 14.801 17.0002 15.583 17.0002H25.4997C26.2817 17.0002 26.9163 17.6335 26.9163 18.4169C26.9163 19.2003 26.2817 19.8336 25.4997 19.8336H15.583Z" fill="#B10B2E"/>
</g>
<defs>
<clipPath id="clip0_36037_2622">
<rect width="34" height="34" fill="white"/>
</clipPath>
</defs>
</svg>
