<svg width="34" height="34" viewBox="0 0 34 34" fill="none" xmlns="http://www.w3.org/2000/svg">
<g clip-path="url(#clip0_14018_1718)">
<path d="M13.4583 3.54167C13.4583 1.58525 15.0436 0 17 0C18.9564 0 20.5417 1.58525 20.5417 3.54167C20.5417 5.49808 18.9564 7.08333 17 7.08333C15.0436 7.08333 13.4583 5.49808 13.4583 3.54167ZM34 29.75V30.4583C34 32.4119 32.4119 34 30.4583 34H3.54167C1.5895 34 0 32.4119 0 30.4583V28.3333C0 25.9902 1.90683 24.0833 4.25 24.0833H8.5C9.05958 24.0833 9.59083 24.1981 10.081 24.395C10.4465 23.0492 11.4481 21.9753 12.75 21.5107V11.1152L6.03075 3.78108C5.50658 3.19883 5.55475 2.3035 6.13558 1.78075C6.71642 1.258 7.61317 1.30475 8.13592 1.88558L14.0887 8.5H19.9098L25.8627 1.88558C26.3868 1.30475 27.2822 1.25658 27.863 1.78075C28.4438 2.3035 28.4906 3.19883 27.9678 3.78108L21.2486 11.1152V21.5121C22.8933 22.0986 24.0819 23.6569 24.0819 25.5014V25.7621C24.5268 25.6034 24.9999 25.5014 25.4986 25.5014H29.7486C32.0918 25.5014 33.9986 27.4082 33.9986 29.7514L34 29.75ZM18.4167 21.25V18.4167H15.5833V21.25H18.4167ZM18.4167 11.3333H15.5833V15.5833H18.4167V11.3333ZM3.54167 31.1667H9.91667V28.3333C9.91667 27.5513 9.28058 26.9167 8.5 26.9167H4.25C3.46942 26.9167 2.83333 27.5513 2.83333 28.3333V30.4583C2.83333 30.8479 3.15067 31.1667 3.54167 31.1667ZM12.75 31.1667H21.25V25.5C21.25 24.718 20.6153 24.0833 19.8333 24.0833H14.1667C13.3861 24.0833 12.75 24.718 12.75 25.5V31.1667ZM31.1667 29.75C31.1667 28.968 30.532 28.3333 29.75 28.3333H25.5C24.718 28.3333 24.0833 28.968 24.0833 29.75V31.1667H30.4583C30.8479 31.1667 31.1667 30.8479 31.1667 30.4583V29.75Z" fill="#B10B2E"/>
</g>
<defs>
<clipPath id="clip0_14018_1718">
<rect width="34" height="34" fill="white"/>
</clipPath>
</defs>
</svg>
