<svg width="35" height="34" viewBox="0 0 35 34" fill="none" xmlns="http://www.w3.org/2000/svg">
<g clip-path="url(#clip0_36037_2693)">
<path d="M18.9167 32.5833C18.9167 33.3653 18.282 34 17.5 34H7.58333C3.67758 34 0.5 30.8224 0.5 26.9167V7.08333C0.5 3.17758 3.67758 0 7.58333 0H16.0833C19.9891 0 23.1667 3.17758 23.1667 7.08333V14.1667C23.1667 14.9487 22.532 15.5833 21.75 15.5833C20.968 15.5833 20.3333 14.9487 20.3333 14.1667V7.08333C20.3333 4.74017 18.4265 2.83333 16.0833 2.83333H7.58333C5.24017 2.83333 3.33333 4.74017 3.33333 7.08333V26.9167C3.33333 29.2598 5.24017 31.1667 7.58333 31.1667H17.5C18.282 31.1667 18.9167 31.8013 18.9167 32.5833ZM9 18.4167H7.58333C6.80133 18.4167 6.16667 19.0513 6.16667 19.8333C6.16667 20.6153 6.80133 21.25 7.58333 21.25H9C9.782 21.25 10.4167 20.6153 10.4167 19.8333C10.4167 19.0513 9.782 18.4167 9 18.4167ZM16.0833 18.4167H14.6667C13.8847 18.4167 13.25 19.0513 13.25 19.8333C13.25 20.6153 13.8847 21.25 14.6667 21.25H16.0833C16.8653 21.25 17.5 20.6153 17.5 19.8333C17.5 19.0513 16.8653 18.4167 16.0833 18.4167ZM9 24.0833H7.58333C6.80133 24.0833 6.16667 24.718 6.16667 25.5C6.16667 26.282 6.80133 26.9167 7.58333 26.9167H9C9.782 26.9167 10.4167 26.282 10.4167 25.5C10.4167 24.718 9.782 24.0833 9 24.0833ZM16.0833 24.0833H14.6667C13.8847 24.0833 13.25 24.718 13.25 25.5C13.25 26.282 13.8847 26.9167 14.6667 26.9167H16.0833C16.8653 26.9167 17.5 26.282 17.5 25.5C17.5 24.718 16.8653 24.0833 16.0833 24.0833ZM9 7.08333H7.58333C6.80133 7.08333 6.16667 7.718 6.16667 8.5C6.16667 9.282 6.80133 9.91667 7.58333 9.91667H9C9.782 9.91667 10.4167 9.282 10.4167 8.5C10.4167 7.718 9.782 7.08333 9 7.08333ZM16.0833 7.08333H14.6667C13.8847 7.08333 13.25 7.718 13.25 8.5C13.25 9.282 13.8847 9.91667 14.6667 9.91667H16.0833C16.8653 9.91667 17.5 9.282 17.5 8.5C17.5 7.718 16.8653 7.08333 16.0833 7.08333ZM9 12.75H7.58333C6.80133 12.75 6.16667 13.3847 6.16667 14.1667C6.16667 14.9487 6.80133 15.5833 7.58333 15.5833H9C9.782 15.5833 10.4167 14.9487 10.4167 14.1667C10.4167 13.3847 9.782 12.75 9 12.75ZM16.0833 12.75H14.6667C13.8847 12.75 13.25 13.3847 13.25 14.1667C13.25 14.9487 13.8847 15.5833 14.6667 15.5833H16.0833C16.8653 15.5833 17.5 14.9487 17.5 14.1667C17.5 13.3847 16.8653 12.75 16.0833 12.75ZM32.2177 30.3011L29.6111 32.8511C28.8107 33.6345 27.7595 34.0255 26.7083 34.0255C25.6572 34.0255 24.606 33.6345 23.8056 32.8511L21.2088 30.3124C18.1602 27.2638 18.1602 22.3196 21.1975 19.2823C22.6694 17.8103 24.6258 17 26.7069 17C28.788 17 30.7444 17.8103 32.2163 19.2808C35.2551 22.3196 35.2565 27.2623 32.2177 30.3011ZM30.2146 21.2854C29.2768 20.349 28.0315 19.8333 26.7083 19.8333C25.3852 19.8333 24.1385 20.349 23.2021 21.2854C21.2683 23.2178 21.2683 26.3642 23.2021 28.2979L25.7875 30.8253C26.2947 31.3225 27.122 31.3225 27.6306 30.8253L30.2273 28.2866C32.1497 26.3642 32.1483 23.2178 30.2146 21.2854ZM26.7083 22.6582C25.5353 22.6582 24.5833 23.6102 24.5833 24.7832C24.5833 25.9562 25.5353 26.9082 26.7083 26.9082C27.8813 26.9082 28.8333 25.9562 28.8333 24.7832C28.8333 23.6102 27.8813 22.6582 26.7083 22.6582Z" fill="#B10B2E"/>
</g>
<defs>
<clipPath id="clip0_36037_2693">
<rect width="34" height="34" fill="white" transform="translate(0.5)"/>
</clipPath>
</defs>
</svg>
