<svg width="29" height="28" viewBox="0 0 29 28" fill="none" xmlns="http://www.w3.org/2000/svg">
<path d="M14.5 28C22.232 28 28.5 21.732 28.5 14C28.5 6.26801 22.232 0 14.5 0C6.76801 0 0.5 6.26801 0.5 14C0.5 21.732 6.76801 28 14.5 28Z" fill="url(#paint0_linear_36048_112)"/>
<path fill-rule="evenodd" clip-rule="evenodd" d="M21.2405 7.42486C19.5605 5.74486 17.3413 4.83226 14.9561 4.81152C10.0613 4.81152 6.07906 8.79375 6.07906 13.6886C6.07906 15.2441 6.49387 16.7789 7.26127 18.1271L5.99609 22.7315L10.7042 21.4871C12.0109 22.1923 13.4628 22.5656 14.9561 22.5656C19.8509 22.5656 23.8331 18.5834 23.8331 13.6886C23.8331 11.3449 22.8998 9.10486 21.2405 7.42486ZM14.9561 21.093C13.6287 21.093 12.322 20.7404 11.202 20.056L10.9324 19.89L8.13239 20.616L8.87906 17.8989L8.71313 17.6293C7.96646 16.4471 7.59313 15.0989 7.59313 13.7093C7.59313 9.64412 10.9116 6.3256 14.9768 6.3256C16.9472 6.3256 18.7931 7.093 20.2035 8.48263C21.5931 9.87226 22.3605 11.7389 22.3605 13.7093C22.3398 17.7745 19.0213 21.093 14.9561 21.093ZM19.0005 15.576C18.7724 15.4723 17.6939 14.933 17.4865 14.85C17.2791 14.7671 17.1339 14.7463 16.9887 14.9537C16.8435 15.1819 16.4079 15.6797 16.2835 15.8249C16.1591 15.97 16.0346 15.9908 15.8065 15.8871C15.5783 15.7834 14.8731 15.5345 14.0228 14.7878C13.3591 14.2071 12.9235 13.4812 12.7783 13.253C12.6539 13.0249 12.7576 12.9212 12.882 12.7967C12.9857 12.693 13.1102 12.5478 13.2139 12.4026C13.3176 12.2782 13.3591 12.1745 13.442 12.0293C13.525 11.8841 13.4835 11.7597 13.4213 11.6352C13.3591 11.5315 12.9235 10.4323 12.7368 9.99671C12.5502 9.56115 12.3635 9.62337 12.2391 9.62337C12.1146 9.62337 11.9694 9.62337 11.8035 9.62337C11.6583 9.62337 11.4094 9.6856 11.202 9.893C10.9946 10.1212 10.4346 10.6604 10.4346 11.7389C10.4346 12.8382 11.2228 13.896 11.3472 14.0412C11.4509 14.1863 12.9028 16.4263 15.1428 17.4012C15.682 17.6293 16.0761 17.7745 16.4079 17.8782C16.9472 18.0441 17.4242 18.0234 17.7976 17.9612C18.2331 17.8989 19.1042 17.4219 19.2909 16.9034C19.4776 16.3849 19.4776 15.9493 19.4154 15.8456C19.3739 15.7419 19.2287 15.6797 19.0005 15.576Z" fill="white"/>
<defs>
<linearGradient id="paint0_linear_36048_112" x1="14.499" y1="25.9629" x2="14.499" y2="-2.03713" gradientUnits="userSpaceOnUse">
<stop stop-color="#78CD51"/>
<stop offset="1" stop-color="#A0FC84"/>
</linearGradient>
</defs>
</svg>
