<svg width="29" height="28" viewBox="0 0 29 28" fill="none" xmlns="http://www.w3.org/2000/svg">
<path d="M14.5 28C22.232 28 28.5 21.732 28.5 14C28.5 6.26801 22.232 0 14.5 0C6.76801 0 0.5 6.26801 0.5 14C0.5 21.732 6.76801 28 14.5 28Z" fill="url(#paint0_linear_36048_109)"/>
<path d="M21.4866 8.2088C21.6112 7.40332 20.8454 6.76755 20.1292 7.082L5.86482 13.3448C5.35123 13.5703 5.3888 14.3483 5.92147 14.5179L8.8631 15.4547C9.4246 15.6335 10.0325 15.541 10.5228 15.2023L17.155 10.6203C17.355 10.4821 17.573 10.7665 17.4021 10.9426L12.6281 15.8646C12.165 16.3421 12.2569 17.1512 12.814 17.5005L18.159 20.8523C18.7585 21.2282 19.5297 20.8506 19.6418 20.1261L21.4866 8.2088Z" fill="white"/>
<defs>
<linearGradient id="paint0_linear_36048_109" x1="14.5" y1="0" x2="14.5" y2="28" gradientUnits="userSpaceOnUse">
<stop stop-color="#37BBFE"/>
<stop offset="1" stop-color="#007DBB"/>
</linearGradient>
</defs>
</svg>
