<svg width="28" height="28" viewBox="0 0 28 28" fill="none" xmlns="http://www.w3.org/2000/svg">
<path d="M14 28C21.732 28 28 21.732 28 14C28 6.26801 21.732 0 14 0C6.26801 0 0 6.26801 0 14C0 21.732 6.26801 28 14 28Z" fill="#DA0000"/>
<path d="M22.9391 9.49895C22.7317 8.69006 22.0887 8.06784 21.2798 7.83969C19.828 7.44562 13.9791 7.44562 13.9791 7.44562C13.9791 7.44562 8.15092 7.44562 6.67833 7.83969C5.86944 8.0471 5.24722 8.69006 5.01907 9.49895C4.625 10.9508 4.625 13.9997 4.625 13.9997C4.625 13.9997 4.625 17.0278 5.01907 18.5004C5.22648 19.3093 5.86944 19.9315 6.67833 20.1597C8.13018 20.5538 13.9791 20.5538 13.9791 20.5538C13.9791 20.5538 19.8072 20.5538 21.2798 20.1597C22.0887 19.9523 22.7109 19.3093 22.9391 18.5004C23.3332 17.0486 23.3331 13.9997 23.3331 13.9997C23.3331 13.9997 23.3332 10.9715 22.9391 9.49895ZM12.1331 16.7997V11.1997L16.9865 13.9997L12.1331 16.7997Z" fill="white"/>
</svg>
