<svg width="28" height="28" viewBox="0 0 28 28" fill="none" xmlns="http://www.w3.org/2000/svg">
<g clip-path="url(#clip0_36073_1569)">
<path d="M14 28C21.732 28 28 21.732 28 14C28 6.26801 21.732 0 14 0C6.26801 0 0 6.26801 0 14C0 21.732 6.26801 28 14 28Z" fill="#6F3FAA"/>
<path d="M22.0863 9.45795V9.43727C21.8986 8.67682 21.4086 7.89091 20.7659 7.22909C20.0149 6.45273 19.0588 5.84341 18.1456 5.64614H18.1265C15.4033 5.12432 12.6057 5.12432 9.88245 5.64614H9.86336C8.16745 6.01364 6.32677 7.78591 5.91631 9.43727V9.45795C5.41201 11.7474 5.41201 14.1192 5.91631 16.4086V16.4277C6.20904 17.605 7.22722 18.8427 8.40131 19.5905C8.78475 19.8403 9.20213 20.0337 9.64063 20.1648V22.007C9.64125 22.1543 9.68569 22.298 9.76829 22.4199C9.85089 22.5417 9.96791 22.6363 10.1044 22.6914C10.241 22.7465 10.3908 22.7597 10.5349 22.7294C10.6789 22.699 10.8107 22.6264 10.9134 22.5209L12.7811 20.58C13.1852 20.6023 13.5925 20.615 13.9965 20.615C15.3798 20.6146 16.76 20.4835 18.1186 20.2236H18.1377C19.8288 19.8545 21.6711 18.0823 22.0784 16.4309V16.4118C22.5858 14.1219 22.5885 11.749 22.0863 9.45795ZM20.6084 16.0682C20.3347 17.1452 18.9379 18.4864 17.8259 18.733C16.3815 19.0096 14.9114 19.1297 13.4413 19.0909C13.427 19.09 13.4127 19.0924 13.3994 19.0979C13.3862 19.1035 13.3744 19.1119 13.365 19.1227L12.0015 20.5227L10.5506 22.0102C10.5274 22.0348 10.4974 22.0518 10.4644 22.059C10.4314 22.0663 10.397 22.0635 10.3656 22.051C10.3343 22.0385 10.3074 22.0168 10.2885 21.9888C10.2695 21.9609 10.2594 21.9279 10.2595 21.8941V18.8395C10.2595 18.815 10.251 18.7912 10.2353 18.7723C10.2196 18.7534 10.1977 18.7406 10.1736 18.7361C9.94164 18.6811 9.71802 18.5955 9.50859 18.4816C8.56359 17.9773 7.61063 16.9432 7.39109 16.0682C6.93634 13.9987 6.93634 11.8552 7.39109 9.78568C7.66313 8.71341 9.0679 7.37545 10.172 7.12727C12.7003 6.6435 15.2975 6.6435 17.8259 7.12727C18.4384 7.26409 19.1384 7.73023 19.6856 8.30295C20.1359 8.76909 20.4811 9.30682 20.6084 9.79045C21.0624 11.8584 21.0624 14.0002 20.6084 16.0682Z" fill="white"/>
<path d="M17.8658 16.2273C17.6591 16.699 17.3037 17.0901 16.8539 17.3409C16.7128 17.4008 16.5663 17.4471 16.4164 17.4793C16.2462 17.4284 16.0839 17.3934 15.9392 17.3314C14.7332 16.8621 13.6105 16.2019 12.6142 15.3761C12.3182 15.1237 12.0402 14.851 11.7821 14.56C11.1449 13.8261 10.6097 13.0095 10.1912 12.1323C9.98758 11.717 9.81576 11.2875 9.64076 10.8595C9.48167 10.4698 9.71712 10.0641 9.95894 9.77296C10.1956 9.50295 10.4868 9.28608 10.8133 9.13659C10.9281 9.07886 11.0596 9.06316 11.1849 9.09222C11.3101 9.12128 11.4212 9.19326 11.4989 9.29568C11.9054 9.75237 12.2637 10.2498 12.568 10.78C12.6639 10.9342 12.6967 11.1194 12.6597 11.2971C12.6227 11.4748 12.5186 11.6315 12.3692 11.7345C12.2896 11.7902 12.2101 11.8539 12.1417 11.9159C12.0742 11.9659 12.0161 12.0272 11.9698 12.0973C11.93 12.1628 11.9058 12.2367 11.8991 12.3131C11.8925 12.3896 11.9036 12.4665 11.9317 12.538C12.2387 13.3827 12.7048 14.0875 13.4017 14.5823C13.6375 14.749 13.8916 14.8883 14.1589 14.9975C14.3336 15.0925 14.5297 15.1407 14.7285 15.1375C15.0753 15.0961 15.1898 14.7127 15.4317 14.5155C15.5427 14.4246 15.68 14.3719 15.8233 14.3653C15.9666 14.3587 16.1082 14.3986 16.2271 14.4789C16.4848 14.638 16.733 14.8177 16.9812 14.9927C17.2267 15.1603 17.463 15.3408 17.6892 15.5336C17.7949 15.6105 17.8705 15.7219 17.9027 15.8486C17.935 15.9752 17.9219 16.1092 17.8658 16.2273Z" fill="white"/>
<path d="M14.4566 8.60363H14.2529C14.3182 8.60045 14.3866 8.60363 14.4566 8.60363Z" fill="white"/>
<path d="M17.9774 13.3716C17.8183 13.3716 17.7403 13.2364 17.7292 13.0884C17.7085 12.7973 17.6926 12.5045 17.6528 12.215C17.5841 11.7265 17.4139 11.2577 17.1533 10.8389C16.8854 10.4025 16.5289 10.0272 16.1069 9.73729C15.6849 9.44735 15.2067 9.24921 14.7033 9.15568C14.4742 9.11432 14.2403 9.10478 14.0096 9.08091C13.8633 9.065 13.6708 9.05546 13.639 8.87409C13.6342 8.83887 13.637 8.80304 13.6472 8.76899C13.6574 8.73494 13.6748 8.70346 13.6981 8.67666C13.7215 8.64985 13.7503 8.62834 13.7826 8.61355C13.8149 8.59876 13.85 8.59105 13.8856 8.59091C13.9237 8.58871 13.9619 8.58871 14.0001 8.59091C14.6955 8.5968 15.3787 8.77409 15.9892 9.1071C16.5997 9.4401 17.1187 9.91853 17.5001 10.5C17.8012 10.9687 18.0057 11.4928 18.1015 12.0416C18.1619 12.3852 18.1842 12.7384 18.2112 13.0884C18.2167 13.1227 18.2147 13.1578 18.2056 13.1913C18.1964 13.2248 18.1803 13.256 18.1582 13.2827C18.136 13.3095 18.1085 13.3313 18.0773 13.3466C18.0462 13.3619 18.0121 13.3704 17.9774 13.3716Z" fill="white"/>
<path d="M17.1167 12.6286C17.1158 12.6759 17.1094 12.7229 17.0976 12.7686C17.0837 12.8146 17.056 12.8552 17.0182 12.8849C16.9804 12.9146 16.9344 12.9319 16.8864 12.9345C16.8385 12.9371 16.7908 12.9249 16.7501 12.8995C16.7093 12.8741 16.6773 12.8367 16.6585 12.7925C16.641 12.7283 16.633 12.6618 16.6347 12.5952C16.6384 12.2394 16.5679 11.8867 16.4278 11.5595C16.396 11.4895 16.361 11.418 16.3212 11.3495C16.0935 10.957 15.7555 10.64 15.3492 10.438C15.1041 10.3222 14.8437 10.2419 14.576 10.1993C14.4583 10.1802 14.3406 10.1691 14.2228 10.1532C14.1922 10.1516 14.1622 10.1438 14.1347 10.1302C14.1072 10.1166 14.0828 10.0976 14.0629 10.0741C14.0431 10.0507 14.0283 10.0235 14.0194 9.99413C14.0105 9.96477 14.0077 9.93389 14.0112 9.90341C14.0113 9.87223 14.0179 9.84141 14.0306 9.81297C14.0434 9.78452 14.0621 9.7591 14.0853 9.73837C14.1086 9.71764 14.136 9.70206 14.1658 9.69267C14.1955 9.68328 14.2269 9.68028 14.2578 9.68387C14.725 9.70189 15.1826 9.82132 15.599 10.0339C16.1074 10.2897 16.5222 10.6995 16.7842 11.2048C16.9318 11.4998 17.0306 11.8168 17.0769 12.1434C17.0855 12.186 17.0919 12.229 17.096 12.2723C17.104 12.3677 17.1072 12.4632 17.1151 12.5809C17.1151 12.592 17.1167 12.6064 17.1167 12.6286Z" fill="white"/>
<path d="M16.0264 12.4091C16.0174 12.4494 15.9965 12.4861 15.9665 12.5145C15.9364 12.5428 15.8986 12.5615 15.8578 12.5682H15.8228C15.7706 12.5716 15.7188 12.5579 15.6752 12.5291C15.6316 12.5004 15.5985 12.4583 15.581 12.4091C15.5711 12.383 15.5646 12.3557 15.5619 12.328C15.5535 12.2209 15.5375 12.1146 15.5141 12.0098C15.4668 11.7976 15.3463 11.6089 15.1737 11.4768C15.0902 11.4169 14.9971 11.3717 14.8985 11.3432C14.7728 11.3066 14.6407 11.3161 14.5166 11.2859C14.4553 11.275 14.4008 11.2403 14.365 11.1893C14.3292 11.1383 14.3151 11.0752 14.3257 11.0139C14.3376 10.9551 14.3704 10.9026 14.4182 10.8663C14.4659 10.83 14.5252 10.8123 14.585 10.8166C15.3137 10.8691 15.8578 11.2191 15.9978 12.0002C16.0122 12.0727 16.0223 12.1461 16.028 12.2198C16.0369 12.2826 16.0364 12.3464 16.0264 12.4091Z" fill="white"/>
</g>
<defs>
<clipPath id="clip0_36073_1569">
<rect width="28" height="28" fill="white"/>
</clipPath>
</defs>
</svg>
