<svg width="29" height="28" viewBox="0 0 29 28" fill="none" xmlns="http://www.w3.org/2000/svg">
<g clip-path="url(#clip0_36048_118)">
<path d="M14.5 28C22.232 28 28.5 21.732 28.5 14C28.5 6.26801 22.232 0 14.5 0C6.76801 0 0.5 6.26801 0.5 14C0.5 21.732 6.76801 28 14.5 28Z" fill="#4169E1"/>
<path d="M22.5692 19.479C22.1619 19.5363 20.1701 19.479 20.0667 19.479C19.5518 19.4856 19.0551 19.289 18.6842 18.9318C18.2642 18.5277 17.8887 18.0822 17.4783 17.659C17.3569 17.5306 17.2255 17.4119 17.0853 17.3043C16.7576 17.0513 16.4331 17.1086 16.2787 17.4952C16.1582 17.9129 16.0741 18.3404 16.0274 18.7727C16.0003 19.164 15.7522 19.409 15.3131 19.4361C15.041 19.4504 14.769 19.4552 14.5001 19.4488C13.5203 19.4425 12.5558 19.2043 11.6858 18.7536C10.7444 18.229 9.92421 17.5118 9.27874 16.6488C8.21761 15.2934 7.36965 13.8043 6.61238 12.269C6.57261 12.1927 5.79624 10.5413 5.77715 10.4634C5.70715 10.2024 5.77715 9.95267 5.99193 9.86676C6.12874 9.81426 8.68693 9.86676 8.72988 9.86676C8.92006 9.86512 9.10583 9.92405 9.26029 10.035C9.41474 10.146 9.52986 10.3033 9.58897 10.484C10.0619 11.6949 10.7093 12.8301 11.5108 13.8536C11.623 13.9904 11.7542 14.1105 11.9006 14.2099C12.109 14.3515 12.3062 14.3022 12.3922 14.062C12.494 13.7287 12.5538 13.384 12.5703 13.0359C12.5847 12.3454 12.5703 11.8904 12.5322 11.2015C12.5067 10.7593 12.3508 10.3711 11.6985 10.247C11.4981 10.212 11.4806 10.0465 11.6094 9.88108C11.8783 9.53745 12.2458 9.48335 12.6578 9.46267C13.2719 9.42767 13.886 9.45154 14.5001 9.46267H14.6337C14.901 9.4617 15.1676 9.48889 15.4292 9.54381C15.5838 9.57508 15.7242 9.65548 15.8294 9.77302C15.9346 9.89056 15.999 10.039 16.0131 10.1961C16.0445 10.3703 16.0578 10.5473 16.0528 10.7243C16.0369 11.4784 16.0003 12.2309 15.9924 12.9849C15.9851 13.2835 16.0123 13.5819 16.0735 13.8743C16.161 14.2752 16.4362 14.3754 16.7099 14.0859C17.0642 13.7115 17.3892 13.3105 17.6819 12.8863C18.1996 12.1132 18.6266 11.2831 18.9547 10.4124C19.1328 9.9654 19.2728 9.86676 19.7501 9.86676H22.4642C22.6256 9.86393 22.7865 9.88538 22.9415 9.9304C22.9963 9.94482 23.0476 9.97041 23.0921 10.0056C23.1367 10.0407 23.1734 10.0847 23.2002 10.1347C23.2269 10.1848 23.243 10.2398 23.2475 10.2963C23.252 10.3529 23.2448 10.4097 23.2262 10.4634C23.0926 11.0584 22.7712 11.5659 22.4308 12.0543C21.8787 12.837 21.2965 13.599 20.7317 14.369C20.6603 14.4712 20.5949 14.5774 20.536 14.6872C20.3228 15.0706 20.3387 15.2854 20.6474 15.6052C21.1406 16.1111 21.6672 16.5868 22.1428 17.1086C22.4921 17.4879 22.8073 17.8973 23.0847 18.332C23.4331 18.8713 23.2183 19.3868 22.5692 19.479Z" fill="white"/>
</g>
<defs>
<clipPath id="clip0_36048_118">
<rect width="28" height="28" fill="white" transform="translate(0.5)"/>
</clipPath>
</defs>
</svg>
