<svg width="18" height="19" viewBox="0 0 18 19" fill="none" xmlns="http://www.w3.org/2000/svg">
<path d="M16.5001 13.19V15.44C16.5009 15.6489 16.4581 15.8556 16.3745 16.047C16.2908 16.2384 16.168 16.4102 16.0141 16.5514C15.8602 16.6926 15.6785 16.8001 15.4806 16.867C15.2828 16.9339 15.0731 16.9588 14.8651 16.94C12.5572 16.6892 10.3403 15.9006 8.39257 14.6375C6.58044 13.486 5.04407 11.9496 3.89257 10.1375C2.62506 8.1809 1.83625 5.95324 1.59007 3.635C1.57133 3.4276 1.59598 3.21857 1.66245 3.02121C1.72892 2.82386 1.83575 2.64251 1.97615 2.48871C2.11654 2.33491 2.28743 2.21203 2.47792 2.12789C2.6684 2.04375 2.87433 2.00019 3.08257 2H5.33257C5.69655 1.99641 6.04942 2.12531 6.32539 2.36265C6.60137 2.59999 6.78163 2.92958 6.83257 3.29C6.92754 4.01005 7.10366 4.71704 7.35757 5.3975C7.45848 5.66594 7.48032 5.95768 7.4205 6.23816C7.36069 6.51863 7.22172 6.77608 7.02007 6.98L6.06757 7.9325C7.13524 9.81016 8.68991 11.3648 10.5676 12.4325L11.5201 11.48C11.724 11.2783 11.9814 11.1394 12.2619 11.0796C12.5424 11.0197 12.8341 11.0416 13.1026 11.1425C13.783 11.3964 14.49 11.5725 15.2101 11.6675C15.5744 11.7189 15.9071 11.9024 16.145 12.1831C16.3828 12.4638 16.5092 12.8222 16.5001 13.19Z" stroke="#BDBDBD" stroke-width="2" stroke-linecap="round" stroke-linejoin="round"/>
</svg>
